# xmcd CD database file
#
# Track frame offsets:
#	150
#	17542
#	28058
#	41866
#	53093
#	72243
#	83819
#	98678
#	115535
#	131329
#	142397
#	160495
#
# Disc length: 2347 seconds
#
# Revision: 1
# Processed by: cddbd v1.5.2PL0 Copyright (c) Steve Scherf et al.
# Submitted via: CDex 1.70beta2
#
DISCID=9f09290c
DTITLE=Wejlet - Jak má bejt
DYEAR=1900
DGENRE=Country
TTITLE0=Hej bejby
TTITLE1=Bláznivej
TTITLE2=Křížem krážem
TTITLE3=Brail
TTITLE4=nad hradbou mraků
TTITLE5=Tragickáý
TTITLE6=Tah
TTITLE7=Columbie
TTITLE8=Na koni
TTITLE9=Dárek
TTITLE10=Virtuální kříž
TTITLE11=Wejlet jak má bejt
EXTD=
EXTT0=
EXTT1=
EXTT2=
EXTT3=
EXTT4=
EXTT5=
EXTT6=
EXTT7=
EXTT8=
EXTT9=
EXTT10=
EXTT11=
PLAYORDER=
